<svg width="500" height="500" viewBox="0 0 500 500" fill="none" xmlns="http://www.w3.org/2000/svg">
<path d="M346.2 219.5H345.2V220.5V242H324H323V243V258V259H324H345.2V280.5V281.5H346.2H361H362V280.5V259H383.2H384.2V258V243V242H383.2H362V220.5V219.5H361H346.2ZM116.8 242H115.8V243V258V259H116.8H176H177V258V243V242H176H116.8ZM146.4 167C101.088 167 64 204.609 64 250.5C64 296.391 101.088 334 146.4 334C179.503 334 207.181 313.603 226.431 294.093C237.014 283.367 244.796 272.909 250 265.389C255.204 272.909 262.986 283.367 273.569 294.093C292.819 313.603 320.497 334 353.6 334C398.912 334 436 296.391 436 250.5C436 204.609 398.912 167 353.6 167C320.497 167 292.819 187.397 273.569 206.907C263.074 217.544 255.219 227.861 250.003 235.374C244.846 227.868 237.258 217.524 226.897 206.911C207.813 187.364 180.165 167 146.4 167ZM146.4 184C173.334 184 197.514 201.131 215.06 219.089C229.137 233.497 237.016 245.599 240.034 250.492C236.893 255.42 228.604 267.48 214.369 281.907C196.613 299.904 172.492 317 146.4 317C110.312 317 80.8 287.109 80.8 250.5C80.8 213.891 110.312 184 146.4 184ZM353.6 184C389.688 184 419.2 213.891 419.2 250.5C419.2 287.109 389.688 317 353.6 317C327.508 317 303.387 299.904 285.631 281.907C271.404 267.488 263.117 255.433 259.971 250.5C263.117 245.567 271.404 233.512 285.631 219.093C303.387 201.096 327.508 184 353.6 184Z" fill="white" stroke="white" stroke-width="2"/>
<circle cx="250" cy="250" r="220" stroke="white" stroke-width="20"/>
</svg>
