<?xml version="1.0" encoding="UTF-8"?>
<svg xmlns="http://www.w3.org/2000/svg" xmlns:xlink="http://www.w3.org/1999/xlink" viewBox="0 0 500 500" width="500px" height="500px">
<g id="surface131968402">
<path style=" stroke:none;fill-rule:nonzero;fill:rgb(100%,100%,100%);fill-opacity:1;" d="M 250 20 C 123.09375 20 20 123.09375 20 250 C 20 376.90625 123.09375 480 250 480 C 376.90625 480 480 376.90625 480 250 C 480 123.09375 376.90625 20 250 20 Z M 250 40 C 366.097656 40 460 133.902344 460 250 C 460 366.097656 366.097656 460 250 460 C 133.902344 460 40 366.097656 40 250 C 40 133.902344 133.902344 40 250 40 Z M 250 80 C 211.835938 80 180 109.398438 180 146.152344 C 180 184.089844 213.003906 221.949219 243.574219 247.636719 C 247.292969 250.753906 252.707031 250.753906 256.425781 247.636719 C 286.988281 221.960938 320 184.09375 320 146.152344 C 320 109.402344 288.15625 80.011719 250 80 Z M 250 100 C 278.003906 100.007812 300 121 300 146.152344 C 300 169.023438 275.636719 201.628906 250 225.253906 C 224.359375 201.621094 200 169.023438 200 146.152344 C 200 120.988281 221.984375 100 250 100 Z M 155.292969 249.550781 C 139.671875 249.917969 124.878906 253.007812 112.441406 260.117188 C 80.308594 278.5 70.625 320.898438 89.921875 354.003906 C 109.230469 387.109375 150.949219 399.933594 183.085938 381.5625 L 183.085938 381.582031 C 216.253906 362.632812 232.800781 315.003906 239.84375 275.605469 C 240.703125 270.804688 237.96875 266.082031 233.378906 264.433594 C 214.410156 257.609375 192.480469 251.785156 171.132812 250.039062 C 165.796875 249.601562 160.5 249.429688 155.292969 249.550781 Z M 344.726562 249.570312 C 339.519531 249.449219 334.222656 249.621094 328.886719 250.058594 C 307.542969 251.800781 285.597656 257.609375 266.621094 264.433594 C 262.03125 266.082031 259.296875 270.804688 260.15625 275.605469 C 267.199219 314.992188 283.738281 362.625 316.914062 381.582031 C 349.050781 399.941406 390.769531 387.109375 410.078125 354.003906 C 429.386719 320.898438 419.703125 278.488281 387.558594 260.117188 C 375.121094 253.011719 360.34375 249.933594 344.726562 249.570312 Z M 155.78125 270.46875 C 160.238281 270.414062 164.871094 270.578125 169.609375 270.9375 C 185.429688 272.140625 201.867188 276.464844 217.207031 281.210938 C 209.476562 315.269531 193.273438 352.710938 173.164062 364.199219 C 151.039062 376.847656 121.375 368.21875 107.207031 343.925781 C 93.046875 319.632812 100.253906 290.121094 122.382812 277.460938 L 122.382812 277.480469 C 130.609375 272.777344 142.40625 270.636719 155.78125 270.46875 Z M 344.21875 270.488281 C 357.601562 270.652344 369.410156 272.78125 377.636719 277.480469 C 399.773438 290.128906 406.964844 319.632812 392.792969 343.925781 C 378.625 368.21875 348.960938 376.859375 326.835938 364.21875 C 306.714844 352.722656 290.519531 315.28125 282.792969 281.230469 C 298.136719 276.484375 314.570312 272.160156 330.390625 270.957031 C 335.128906 270.597656 339.757812 270.433594 344.21875 270.488281 Z M 344.21875 270.488281 "/>
</g>
</svg>
