<?xml version="1.0" encoding="UTF-8"?>
<svg xmlns="http://www.w3.org/2000/svg" xmlns:xlink="http://www.w3.org/1999/xlink" viewBox="0 0 500 500" width="500px" height="500px">
<g id="surface132083282">
<path style=" stroke:none;fill-rule:nonzero;fill:rgb(100%,100%,100%);fill-opacity:1;" d="M 250 20 C 123.113281 20 20 123.113281 20 250 C 20 376.886719 123.113281 480 250 480 C 376.886719 480 480 376.886719 480 250 C 480 123.113281 376.886719 20 250 20 Z M 250 40 C 366.074219 40 460 133.925781 460 250 C 460 250.714844 459.949219 251.417969 459.941406 252.128906 C 453.546875 251.539062 446.15625 250.976562 436.757812 250.644531 C 423.46875 250.171875 406.722656 250.308594 387.734375 251.25 C 388.4375 246.347656 388.933594 241.375 388.945312 236.269531 C 389.914062 217.542969 383.625 200.023438 373.398438 184.550781 C 375.867188 176.011719 378.765625 165.152344 379.492188 152.832031 C 380.316406 138.789062 379.105469 123.21875 367.832031 112.695312 L 364.941406 110 L 360.996094 110 C 334.164062 110 315.800781 121.230469 304.570312 130.136719 C 288.355469 123.859375 270.121094 120 250 120 C 229.765625 120 211.355469 123.914062 194.472656 130.175781 C 183.25 121.265625 164.867188 110 138.007812 110 L 134.082031 110 L 131.191406 112.675781 C 120.210938 122.875 119.199219 138.019531 119.882812 151.992188 C 120.488281 164.316406 123.21875 175.523438 125.644531 184.472656 C 115.246094 200.25 109.003906 218.21875 109.003906 235.996094 C 109.003906 241.113281 109.480469 246.101562 110.175781 251.015625 C 92.117188 250.179688 76.019531 250.015625 63.242188 250.46875 C 53.84375 250.800781 46.453125 251.355469 40.058594 251.953125 C 40.050781 251.300781 40 250.65625 40 250 C 40 133.925781 133.925781 40 250 40 Z M 143.964844 131.308594 C 164.140625 133.21875 179.320312 142.230469 186.347656 148.476562 L 191.035156 152.617188 L 196.816406 150.253906 C 212.632812 143.742188 230.269531 140 250 140 C 269.730469 140 287.375 143.761719 301.992188 150.15625 L 307.851562 152.734375 L 312.636719 148.476562 C 319.667969 142.226562 334.871094 133.214844 355.058594 131.308594 C 357.742188 135.757812 360.074219 142.085938 359.511719 151.660156 C 358.835938 163.117188 355.773438 175.597656 353.457031 183.007812 L 351.953125 187.832031 L 354.941406 191.914062 C 364.835938 205.40625 369.882812 220.007812 369.023438 235.449219 L 369.003906 235.722656 L 369.003906 235.996094 C 369.003906 260.949219 360.019531 280.921875 340.878906 295.722656 C 321.742188 310.523438 291.527344 320 249.003906 320 C 206.480469 320 176.25 310.523438 157.109375 295.722656 C 137.96875 280.921875 129.003906 260.949219 129.003906 235.996094 C 129.003906 221.347656 134.292969 205.234375 144.0625 191.914062 L 146.992188 187.929688 L 145.585938 183.183594 C 143.269531 175.304688 140.429688 162.539062 139.863281 151.015625 C 139.394531 141.429688 141.664062 135.371094 143.964844 131.308594 Z M 88.847656 260.214844 C 95.914062 260.304688 104.015625 260.6875 112.128906 261.09375 C 112.90625 264.210938 113.789062 267.277344 114.863281 270.273438 C 81.789062 270.972656 57.046875 274.296875 41.796875 277.148438 C 41.152344 272.144531 40.636719 267.101562 40.351562 261.992188 C 51.621094 260.921875 67.511719 259.941406 88.847656 260.214844 Z M 411.152344 260.371094 C 432.476562 260.101562 448.355469 261.082031 459.628906 262.148438 C 459.34375 267.183594 458.835938 272.15625 458.203125 277.089844 C 442.40625 274.191406 416.996094 270.867188 383.066406 270.332031 C 384.121094 267.398438 384.996094 264.382812 385.761719 261.328125 C 394.714844 260.847656 403.445312 260.46875 411.152344 260.371094 Z M 119.121094 280.195312 C 125.089844 292.152344 133.613281 302.832031 144.882812 311.542969 C 160.289062 323.457031 180.316406 331.777344 204.765625 336.230469 C 201.566406 339.515625 198.65625 343.125 196.074219 346.933594 L 195.46875 346.40625 C 195.523438 346.34375 190.496094 348.859375 182.988281 349.53125 C 175.480469 350.203125 166.214844 350 158.007812 350 C 145.757812 350 140.363281 344.210938 131.738281 333.671875 C 126.960938 327.234375 121.140625 322.023438 115.488281 318.066406 C 109.699219 314.015625 104.761719 311.15625 98.652344 310.136719 L 97.832031 310 L 96.992188 310 C 92.324219 310 87.808594 310.339844 83.59375 315.15625 C 81.484375 317.566406 80.03125 322.027344 80.976562 325.800781 C 81.921875 329.574219 84.308594 331.894531 86.445312 333.320312 C 100.113281 342.433594 102.527344 360.464844 111.09375 376.503906 C 119.09375 392.441406 136.355469 400 154.003906 400 L 180 400 L 180 448.027344 C 109.679688 423.207031 56.648438 362.046875 43.320312 287.03125 C 58.628906 284.148438 84.265625 280.679688 119.121094 280.195312 Z M 378.828125 280.273438 C 414.457031 280.578125 440.808594 284.039062 456.699219 286.972656 C 443.390625 362.015625 390.339844 423.199219 320 448.027344 L 320 395.996094 C 320 380.152344 314.796875 362.675781 305.742188 348.105469 C 302.992188 343.679688 299.757812 339.496094 296.152344 335.742188 C 319.304688 331.167969 338.324219 322.988281 353.125 311.542969 C 364.367188 302.847656 372.875 292.203125 378.828125 280.273438 Z M 236.992188 340.996094 L 265 340.996094 C 273.128906 340.996094 281.804688 347.472656 288.75 358.652344 C 295.695312 369.832031 300 384.839844 300 395.996094 L 300 453.984375 C 283.972656 457.890625 267.238281 460 250 460 C 232.761719 460 216.027344 457.890625 200 453.984375 L 200 395.996094 C 200 385.089844 204.679688 370.113281 212.089844 358.886719 C 219.5 347.660156 228.863281 340.996094 236.992188 340.996094 Z M 123.085938 352.8125 C 131.742188 361.792969 142.226562 370 158.007812 370 C 165.800781 370 175.523438 370.28125 184.765625 369.453125 C 184.796875 369.449219 184.832031 369.4375 184.863281 369.433594 C 183.644531 372.933594 182.738281 376.457031 181.972656 380 L 154.003906 380 C 141.671875 380 132.957031 375.542969 128.945312 367.519531 L 128.867188 367.382812 L 128.808594 367.265625 C 127.164062 364.210938 125.007812 358.105469 123.085938 352.8125 Z M 123.085938 352.8125 "/>
</g>
</svg>
