<?xml version="1.0" encoding="UTF-8"?>
<svg xmlns="http://www.w3.org/2000/svg" xmlns:xlink="http://www.w3.org/1999/xlink" viewBox="0 0 500 500" width="500px" height="500px">
<g id="surface164323303">
<path style=" stroke:none;fill-rule:nonzero;fill:rgb(100%,100%,100%);fill-opacity:1;" d="M 250 10 C 156.199219 10 80 86.199219 80 180 C 80 219.347656 93.382812 255.632812 115.78125 284.414062 C 115.789062 284.425781 115.792969 284.441406 115.800781 284.453125 C 128.820312 302 155.402344 334.457031 179.84375 370.273438 C 204.339844 406.171875 226.097656 445.761719 229.472656 472.558594 C 229.480469 472.605469 229.484375 472.648438 229.492188 472.695312 C 230.878906 482.59375 239.460938 490 249.394531 490 C 259.332031 490 268.132812 482.53125 269.335938 472.5 C 272.640625 446.445312 293.449219 408.429688 317.285156 373.535156 C 341.136719 338.621094 367.535156 306.417969 381.503906 287.792969 C 381.402344 287.929688 381.890625 287.265625 382.128906 286.972656 C 405.765625 257.777344 420 220.492188 420 180 C 420 86.199219 343.800781 10 250 10 Z M 250 30 C 256.089844 30 261.875 31.09375 267.773438 31.796875 L 198.574219 116.347656 L 144.941406 72.988281 C 171.984375 46.4375 209 30 250 30 Z M 290.097656 36.074219 C 330.789062 47.367188 364.160156 75.074219 383.027344 111.933594 L 329.472656 177.402344 C 328.015625 134.578125 293.171875 100 250 100 C 244.8125 100 240.285156 102.019531 235.371094 102.96875 Z M 132.011719 88.242188 L 185.917969 131.816406 L 107.949219 227.109375 C 103.035156 212.273438 100 196.539062 100 180 C 100 145.222656 112.238281 113.648438 132.011719 88.242188 Z M 250 120 C 283.308594 120 310 146.691406 310 180 C 310 213.308594 283.308594 240 250 240 C 216.691406 240 190 213.308594 190 180 C 190 146.691406 216.691406 120 250 120 Z M 391.738281 132.851562 C 396.683594 147.753906 400 163.414062 400 180 C 400 215.863281 387.4375 248.703125 366.523438 274.492188 C 366.328125 274.738281 366.148438 274.992188 365.976562 275.253906 C 366.628906 274.273438 366.289062 274.761719 365.507812 275.800781 C 352.179688 293.574219 325.257812 326.386719 300.761719 362.246094 C 276.265625 398.105469 253.6875 436.617188 249.472656 470.058594 C 249.472656 470.078125 249.472656 470.097656 249.472656 470.117188 C 249.476562 470.085938 249.65625 470 249.394531 470 C 249.328125 470 249.3125 470.023438 249.296875 469.921875 C 245.210938 437.855469 223.996094 401.015625 200.78125 366.269531 Z M 170.46875 182.304688 C 171.765625 225.273438 206.726562 260 250 260 C 255.046875 260 259.445312 258.007812 264.238281 257.109375 L 188.984375 349.101562 C 166.488281 317.339844 142.558594 286.941406 131.738281 272.34375 C 131.6875 272.277344 131.636719 272.214844 131.582031 272.148438 C 125.675781 264.5625 122.117188 255.402344 117.734375 246.757812 Z M 170.46875 182.304688 "/>
</g>
</svg>
