<?xml version="1.0" encoding="UTF-8"?>
<svg xmlns="http://www.w3.org/2000/svg" xmlns:xlink="http://www.w3.org/1999/xlink" viewBox="0 0 500 500" width="500px" height="500px">
<g id="surface165090591">
<path style=" stroke:none;fill-rule:nonzero;fill:rgb(100%,100%,100%);fill-opacity:1;" d="M 185.023438 29.601562 C 157.425781 29.601562 133.636719 49.085938 128.199219 76.136719 L 123.488281 99.199219 L 64.398438 99.199219 C 32.363281 99.199219 6.398438 125.164062 6.398438 157.199219 L 6.398438 400.800781 C 6.398438 432.835938 32.363281 458.800781 64.398438 458.800781 L 435.601562 458.800781 C 467.636719 458.800781 493.601562 432.835938 493.601562 400.800781 L 493.601562 157.199219 C 493.601562 125.164062 467.636719 99.199219 435.601562 99.199219 L 376.511719 99.199219 L 371.800781 76.136719 C 366.363281 49.039062 342.574219 29.601562 314.976562 29.601562 Z M 185.023438 52.800781 L 314.976562 52.800781 C 331.472656 52.800781 345.835938 64.535156 349.097656 80.710938 L 353.71875 103.777344 C 355.941406 114.605469 365.457031 122.398438 376.511719 122.398438 L 435.601562 122.398438 C 454.765625 122.398438 470.398438 138.03125 470.398438 157.199219 L 470.398438 400.800781 C 470.398438 419.96875 454.765625 435.601562 435.601562 435.601562 L 64.398438 435.601562 C 45.234375 435.601562 29.601562 419.96875 29.601562 400.800781 L 29.601562 157.199219 C 29.601562 138.03125 45.234375 122.398438 64.398438 122.398438 L 123.488281 122.398438 C 134.542969 122.398438 144.058594 114.605469 146.28125 103.777344 L 150.902344 80.710938 C 154.164062 64.535156 168.527344 52.800781 185.023438 52.800781 Z M 250 157.199219 C 185.929688 157.199219 134 209.128906 134 273.199219 C 134 337.273438 185.929688 389.199219 250 389.199219 C 314.070312 389.199219 366 337.273438 366 273.199219 C 366 209.128906 314.070312 157.199219 250 157.199219 Z M 250 180.398438 C 301.15625 180.398438 342.800781 222.042969 342.800781 273.199219 C 342.800781 324.359375 301.15625 366 250 366 C 198.84375 366 157.199219 324.359375 157.199219 273.199219 C 157.199219 222.042969 198.84375 180.398438 250 180.398438 Z M 250 180.398438 "/>
</g>
</svg>
